HIERARCHY
ROOT Hips
{
	OFFSET 0.000000 0.000000 0.000000 
	CHANNELS 6 Xposition Yposition Zposition Yrotation Zrotation Xrotation 
	JOINT Lumbar
	{
		OFFSET 0.000000 0.000000 0.000000 
		CHANNELS 3 Zrotation Xrotation Yrotation
		JOINT Neck
		{
			OFFSET 0.000000 0.445665 0.000000 
			CHANNELS 3 Zrotation Xrotation Yrotation
			End Site
			{
				OFFSET 0.000000 0.227535 0.000000 
			}
		}
		JOINT RightShoulder
		{
			OFFSET 0.019635 0.377685 0.194865 
			CHANNELS 3 Zrotation Xrotation Yrotation
			JOINT RightElbow
			{
				OFFSET 0.000000 -0.243375 0.000000 
				CHANNELS 2 Zrotation Yrotation
				JOINT RightWrist
				{
					OFFSET 0.000000 -0.264825 0.000000 
					CHANNELS 2 Zrotation Xrotation
					End Site
					{
						OFFSET 0.006600 -0.176220 0.000990 
					}
				}
			}
		}
		JOINT LeftShoulder
		{
			OFFSET 0.019635 0.377685 -0.194865 
			CHANNELS 3 Zrotation Xrotation Yrotation
			JOINT LeftElbow
			{
				OFFSET 0.000000 -0.243375 0.000000 
				CHANNELS 2 Zrotation Yrotation
				JOINT LeftWrist
				{
					OFFSET 0.000000 -0.264825 0.000000 
					CHANNELS 2 Zrotation Xrotation
					End Site
					{
						OFFSET 0.006600 -0.176220 -0.000990 
					}
				}
			}
		}
	}
	JOINT RightHip
	{
		OFFSET 0.052140 -0.069960 0.075570 
		CHANNELS 3 Zrotation Xrotation Yrotation
		JOINT RightKnee
		{
			OFFSET 0.000000 -0.402270 0.000000 
			CHANNELS 1 Zrotation
			JOINT RightAnkle
			{
				OFFSET 0.000000 -0.404085 0.000000 
				CHANNELS 3 Zrotation Xrotation Yrotation
				End Site
				{
					OFFSET 0.204105 -0.089430 0.008415 
				}
			}
		}
	}
	JOINT LeftHip
	{
		OFFSET 0.052140 -0.069960 -0.075570 
		CHANNELS 3 Zrotation Xrotation Yrotation
		JOINT LeftKnee
		{
			OFFSET 0.000000 -0.402270 0.000000 
			CHANNELS 1 Zrotation
			JOINT LeftAnkle
			{
				OFFSET 0.000000 -0.404085 0.000000 
				CHANNELS 3 Zrotation Xrotation Yrotation
				End Site
				{
					OFFSET 0.204105 -0.089430 -0.008415 
				}
			}
		}
	}
}
MOTION
Frames: 23
Frame Time: 0.02
-0 0.95578 -0 178.53781 0 2.76419 10.44731 -0.65562 -2.25608 -37.24206 1.71278 4.88328 27.79 -13.66015 -1.86181 10.03454 77.97995 1.30874 2.1396 30.01005 3.93586 -0.96765 8.21416 -72.14785 -4.82446 -1.31394 2.72234 3.13035 13.74687 -21.02196 11.4209 -9.18651 -12.74736 1.67886 -2.96896 -9.4877 -15.89207 8.36278 6.72269 10.93557
0.0006 0.95581 0.00018 178.43396 0 2.76539 10.34655 -0.64084 -2.2255 -36.83035 1.69417 4.8415 27.36494 -13.57959 -1.96545 10.04145 78.46884 1.33037 2.12296 29.58725 3.97337 -0.8475 8.23742 -72.45192 -4.80787 -1.35239 2.79521 3.13341 13.85163 -21.08585 11.41299 -9.1791 -12.74184 1.69568 -2.99097 -9.48881 -15.88792 8.33822 6.72138 11.03988
0.00121 0.95583 0.00036 178.33095 0 2.76663 10.24564 -0.62613 -2.19545 -36.41894 1.67604 4.79983 26.94051 -13.49963 -2.07003 10.04806 78.95411 1.35202 2.10678 29.16515 4.01052 -0.72814 8.2603 -72.75364 -4.79137 -1.39068 2.86804 3.13641 13.95569 -21.14978 11.40529 -9.17189 -12.73656 1.71283 -3.01296 -9.49002 -15.88416 8.31386 6.72017 11.14343
0.00182 0.95585 0.00055 178.23036 0 2.76757 10.14348 -0.61109 -2.16738 -36.0052 1.6592 4.7583 26.51499 -13.42116 -2.17748 10.05293 79.42862 1.37423 2.09257 28.74211 4.04667 -0.6101 8.28145 -73.0479 -4.77493 -1.42901 2.94015 3.13919 14.05708 -21.2117 11.39742 -9.16447 -12.73155 1.73116 -3.03458 -9.49099 -15.88126 8.28979 6.7192 11.24466
0.0024 0.95587 0.00072 178.11703 0 2.76954 10.04836 -0.59729 -2.12899 -35.60434 1.63501 4.71617 26.09591 -13.33468 -2.26745 10.06627 79.95885 1.39376 2.06826 28.32451 4.08822 -0.48429 8.31127 -73.38045 -4.75797 -1.46753 3.01454 3.14315 14.17155 -21.28094 11.38934 -9.15708 -12.72434 1.74289 -3.05753 -9.49245 -15.873 8.26389 6.71673 11.3578
0.00304 0.95589 0.00092 178.03071 0 2.7697 9.93815 -0.58123 -2.11236 -35.1763 1.62671 4.67524 25.66318 -13.2653 -2.39585 10.06217 80.37159 1.41876 2.06512 27.89552 4.11825 -0.37558 8.32308 -73.63254 -4.74225 -1.50535 3.08508 3.14461 14.25894 -21.33691 11.38247 -9.15037 -12.72232 1.76882 -3.07805 -9.49342 -15.87661 8.2421 6.71759 11.44592
0.00387 0.95589 0.00122 178.02004 0 2.76157 9.78432 -0.55524 -2.15864 -34.66154 1.66099 4.63745 25.18313 -13.24238 -2.62466 10.0039 80.45232 1.46177 2.1244 27.42464 4.11655 -0.30801 8.28029 -73.65391 -4.72872 -1.54451 3.13737 3.13882 14.26497 -21.33675 11.37221 -9.13889 -12.73059 1.83378 -3.08877 -9.48835 -15.90987 8.22953 6.72678 11.46245
0.00477 0.95589 0.00156 178.03653 0 2.75215 9.61557 -0.52753 -2.22646 -34.12114 1.71151 4.60084 24.69065 -13.23682 -2.89337 9.92898 80.41612 1.50986 2.20436 26.9438 4.10324 -0.25864 8.22009 -73.59562 -4.71661 -1.58249 3.187 3.13056 14.24467 -21.3264 11.36429 -9.12919 -12.74474 1.91308 -3.09754 -9.48355 -15.95563 8.22146 6.73948 11.45413
0.00563 0.95589 0.00188 178.0398 0 2.74551 9.45453 -0.5031 -2.28258 -33.59908 1.75562 4.56381 24.20934 -13.22386 -3.14807 9.86562 80.4382 1.55372 2.27237 26.47351 4.09514 -0.20494 8.17104 -73.57941 -4.70471 -1.61884 3.2432 3.12366 14.24094 -21.33392 11.35984 -9.12311 -12.75896 1.98614 -3.10935 -9.48184 -15.9979 8.21271 6.75119 11.45893
0.00652 0.9559 0.00223 178.04643 0 2.72984 9.28906 -0.46852 -2.34656 -33.04791 1.79598 4.5264 23.70428 -13.20899 -3.38613 9.78576 80.4378 1.60544 2.35124 25.97729 4.08718 -0.13504 8.10863 -73.53853 -4.6894 -1.66401 3.27778 3.1158 14.21856 -21.2872 11.33677 -9.09876 -12.76203 2.05842 -3.11241 -9.46701 -16.03133 8.1983 6.76046 11.45633
0.00735 0.95588 0.00251 178.05295 0 2.73236 9.12994 -0.45419 -2.39954 -32.55246 1.8476 4.48991 23.2464 -13.20203 -3.66737 9.73587 80.45741 1.64227 2.41228 25.53343 4.07636 -0.10268 8.06951 -73.52988 -4.6813 -1.69091 3.35548 3.10932 14.22777 -21.34897 11.3524 -9.11233 -12.78918 2.13523 -3.13281 -9.47902 -16.0856 8.19661 6.7755 11.46283
0.00804 0.95575 0.00263 178.0488 0 2.78805 8.98631 -0.50031 -2.41465 -32.20684 1.93005 4.45701 22.91576 -13.2146 -4.06639 9.77653 80.55226 1.63425 2.42049 25.23017 4.05867 -0.17349 8.10231 -73.63163 -4.69468 -1.66448 3.56387 3.10736 14.33937 -21.7304 11.47984 -9.23526 -12.88607 2.22531 -3.20512 -9.56982 -16.19888 8.23024 6.80697 11.50402
0.00866 0.95559 0.00268 178.04424 0 2.86157 8.8507 -0.56613 -2.41829 -31.92017 2.02267 4.42483 22.63414 -13.2343 -4.50604 9.84725 80.67262 1.61144 2.40995 24.98124 4.03873 -0.28033 8.15853 -73.7681 -4.71495 -1.62028 3.81364 3.10687 14.48208 -22.21806 11.64525 -9.3955 -13.00615 2.31858 -3.29425 -9.68682 -16.33181 8.27635 6.84392 11.55457
0.00927 0.95544 0.00276 178.04238 0 2.9252 8.71512 -0.6202 -2.42869 -31.61313 2.10813 4.3913 22.33403 -13.24934 -4.92152 9.90173 80.78735 1.59714 2.40687 24.71147 4.02113 -0.36856 8.20185 -73.88753 -4.73077 -1.58634 4.03732 3.10555 14.60477 -22.64557 11.78949 -9.53513 -13.11249 2.40768 -3.37343 -9.7886 -16.45281 8.31576 6.87741 11.59854
0.01003 0.95528 0.00286 178.03107 0 2.99637 8.56332 -0.6859 -2.43353 -31.2777 2.20458 4.3617 22.0175 -13.27052 -5.3621 9.96639 80.874 1.57581 2.40835 24.4246 3.99796 -0.46845 8.25406 -74.00988 -4.75207 -1.54326 4.29188 3.10465 14.7512 -23.12293 11.94977 -9.68961 -13.23241 2.50909 -3.46245 -9.90403 -16.58706 8.35928 6.91493 11.65149
0.01047 0.95514 0.00289 178.0387 0 3.05606 8.44763 -0.7322 -2.44665 -31.0162 2.28069 4.32459 21.74697 -13.28093 -5.76003 10.01734 81.02525 1.5651 2.39638 24.18701 3.98552 -0.55038 8.29357 -74.13497 -4.76373 -1.51483 4.49171 3.10347 14.85612 -23.52174 12.08635 -9.82278 -13.32966 2.58502 -3.53477 -9.99769 -16.69803 8.39761 6.94554 11.68826
0.01008 0.95505 0.00281 178.10107 0 3.07981 8.42764 -0.71922 -2.48818 -30.94062 2.2954 4.26237 21.59125 -13.25531 -6.02503 10.02228 81.36182 1.59146 2.34504 24.06652 4.00758 -0.59065 8.29243 -74.26361 -4.74575 -1.5326 4.53285 3.09957 14.83682 -23.67879 12.14255 -9.88211 -13.35712 2.59309 -3.55871 -10.02142 -16.74155 8.41505 6.95401 11.67842
0.00935 0.95497 0.00266 178.18196 0 3.09139 8.44406 -0.6864 -2.53796 -30.93816 2.28985 4.19337 21.48007 -13.21946 -6.24594 10.01282 81.76065 1.62834 2.28181 23.99471 4.03979 -0.60834 8.27786 -74.3934 -4.71807 -1.5654 4.51715 3.09571 14.77487 -23.7533 12.17498 -9.92035 -13.36135 2.57469 -3.56486 -10.02318 -16.76061 8.42774 6.95583 11.65205
0.00876 0.95489 0.00253 178.25262 0 3.10841 8.44535 -0.66298 -2.58184 -30.90495 2.29514 4.1302 21.34889 -13.19111 -6.49096 10.01032 82.12288 1.65752 2.22862 23.90458 4.06456 -0.62535 8.2693 -74.52011 -4.69566 -1.59053 4.52568 3.09279 14.73433 -23.86445 12.22154 -9.97135 -13.37701 2.56623 -3.57808 -10.037 -16.78973 8.44455 6.96155 11.63316
0.00824 0.9548 0.00245 178.33074 0 3.1263 8.44134 -0.6378 -2.63379 -30.86368 2.29338 4.05538 21.21902 -13.15067 -6.72246 10.00628 82.52097 1.69805 2.15591 23.8009 4.10109 -0.69002 8.26157 -74.65869 -4.6698 -1.61892 4.5419 3.0856 14.68762 -23.98158 12.25393 -10.00794 -13.38923 2.56686 -3.59652 -10.04213 -16.82398 8.45242 6.96296 11.61471
0.0075 0.95473 0.00224 178.39796 0 3.13941 8.45643 -0.61236 -2.67183 -30.85533 2.30204 4.00329 21.09556 -13.1333 -6.96833 10.00266 82.85889 1.71819 2.12041 23.73552 4.1157 -0.64935 8.2491 -74.77247 -4.64879 -1.64388 4.5287 3.08766 14.64156 -24.06705 12.31149 -10.07196 -13.40348 2.54202 -3.59923 -10.06086 -16.8415 8.47897 6.97268 11.59132
0.00621 0.95468 0.00174 178.42874 0 3.14069 8.51951 -0.58208 -2.66272 -30.92428 2.33831 4.01476 20.98579 -13.17835 -7.28881 9.99445 83.01486 1.67468 2.19828 23.77065 4.0664 -0.32449 8.22239 -74.81655 -4.64323 -1.65967 4.44208 3.11249 14.62211 -24.06876 12.42824 -10.19111 -13.42292 2.45537 -3.56604 -10.11355 -16.8192 8.54622 6.99844 11.55824
0.00471 0.95464 0.00108 178.44845 0 3.13765 8.59971 -0.55385 -2.64075 -31.023 2.38682 4.04943 20.87958 -13.24751 -7.62088 9.98852 83.10811 1.61127 2.31276 23.84134 3.99505 0.10636 8.19197 -74.83562 -4.64296 -1.67089 4.32843 3.14736 14.60203 -24.04347 12.57353 -10.34273 -13.44606 2.3439 -3.51682 -10.18234 -16.78133 8.63435 7.03427 11.5209
